<?xml version="1.0" encoding="UTF-8"?>
<svg width="295" height="212" viewBox="0 0 295 212" fill="none" xmlns="http://www.w3.org/2000/svg">
  <path d="M147.5 106C147.5 164.5 106 212 53.5 212C1 212 0 164.5 0 106C0 47.5 1 0 53.5 0C106 0 147.5 47.5 147.5 106Z" fill="#E6F0FF"/>
  <path d="M295 106C295 164.5 253.5 212 201 212C148.5 212 147.5 164.5 147.5 106C147.5 47.5 148.5 0 201 0C253.5 0 295 47.5 295 106Z" fill="#CCE0FF"/>
  <path d="M221 76C221 89.8071 209.807 101 196 101C182.193 101 171 89.8071 171 76C171 62.1929 182.193 51 196 51C209.807 51 221 62.1929 221 76Z" fill="#3399FF"/>
  <rect x="183" y="91" width="26" height="70" rx="4" fill="#3399FF"/>
</svg>